<svg xmlns="http://www.w3.org/2000/svg" viewBox="0 0 31 31"><title>icon-history</title><g id="Layer_4" data-name="Layer 4"><rect x="16.5" y="4.5" width="3" height="23" rx="1.5" ry="1.5" transform="translate(34 -2) rotate(90)"/><circle cx="2.5" cy="16" r="1.5"/><rect x="16.5" y="-0.5" width="3" height="23" rx="1.5" ry="1.5" transform="translate(29 -7) rotate(90)"/><circle cx="2.5" cy="11" r="1.5"/><rect x="16.5" y="-5.5" width="3" height="23" rx="1.5" ry="1.5" transform="translate(24 -12) rotate(90)"/><circle cx="2.5" cy="6" r="1.5"/><rect x="16.5" y="14.5" width="3" height="23" rx="1.5" ry="1.5" transform="translate(44 8) rotate(90)"/><circle cx="2.5" cy="26" r="1.5"/><rect x="16.5" y="9.5" width="3" height="23" rx="1.5" ry="1.5" transform="translate(39 3) rotate(90)"/><circle cx="2.5" cy="21" r="1.5"/></g></svg>