<svg id="Layer_2" data-name="Layer 2" xmlns="http://www.w3.org/2000/svg" xmlns:xlink="http://www.w3.org/1999/xlink" viewBox="0 0 296 281"><defs><style>.cls-1{fill:url(#linear-gradient);}.cls-2{fill:#752a14;}.cls-3{fill:url(#linear-gradient-2);}.cls-4{fill:#fff;}</style><linearGradient id="linear-gradient" x1="72.58" y1="203.54" x2="122.75" y2="169.5" gradientUnits="userSpaceOnUse"><stop offset="0" stop-color="#a86d2c"/><stop offset="1" stop-color="#752a14"/></linearGradient><linearGradient id="linear-gradient-2" x1="261.97" y1="12.9" x2="234.64" y2="116.23" xlink:href="#linear-gradient"/></defs><title>logomark</title><path class="cls-1" d="M184,242c10-21,17-25,17-60,0-34-24-70-51-76-36.12-8-58-33-58-33s-38,41-39,54c-19,71,63,141,79,143s5,7,5,7Z"/><path class="cls-2" d="M86,281h94c7,0,9-18,9-33s-17-66-52-66c-15,0-29,27-29,43s4,39,18,46C118,269,83,262,86,281Z"/><path class="cls-3" d="M181,252c26-11,55-39,55-64,0-51-72-53-74-101-.87-41.58,43.29-78.66,82.42-87.18a9,9,0,0,1,10,12.86C242.65,36.35,235.17,57,236,77c1.25,30.06,60,31,60,111,0,50-54,93-116,93C180,262,181,252,181,252Z"/><path class="cls-2" d="M92,73c15.25,18.77-7,47-23,55S9,141,2,128,12,83,38,68,79,57,92,73Z"/><path class="cls-2" d="M58,68c6-9,10-20,16-20s16,19,8,37"/><path class="cls-2" d="M120,129c0,24-10,57-40,61s-40-13-51-11S2,189-2,178s20-24,31-22,21,0,29,0c0-2,1-12,4-17a63.94,63.94,0,0,1,14.54-15.92"/><g id="_Ellipse_" data-name="&lt;Ellipse&gt;"><circle class="cls-4" cx="38" cy="97" r="7"/><circle class="cls-4" cx="38" cy="97" r="7"/></g></svg>