<svg id="Layer_2" data-name="Layer 2" xmlns="http://www.w3.org/2000/svg" xmlns:xlink="http://www.w3.org/1999/xlink" viewBox="0 0 614 411"><defs><style>.cls-1{fill:url(#linear-gradient);}.cls-2{fill:#752a14;}.cls-3{fill:url(#linear-gradient-2);}.cls-4{fill:#fff;}.cls-5{font-size:73.8px;fill:#0f4a31;font-family:Phosphate-Inline, Phosphate;}</style><linearGradient id="linear-gradient" x1="242.58" y1="220.54" x2="292.75" y2="186.5" gradientUnits="userSpaceOnUse"><stop offset="0" stop-color="#a86d2c"/><stop offset="1" stop-color="#752a14"/></linearGradient><linearGradient id="linear-gradient-2" x1="431.97" y1="29.9" x2="404.64" y2="133.23" xlink:href="#linear-gradient"/></defs><title>logo-vertical</title><path class="cls-1" d="M354,259c10-21,17-25,17-60,0-34-24-70-51-76-36.12-8-58-33-58-33s-38,41-39,54c-19,71,63,141,79,143s5,7,5,7Z"/><path class="cls-2" d="M256,298h94c7,0,9-18,9-33s-17-66-52-66c-15,0-29,27-29,43s4,39,18,46C288,286,253,279,256,298Z"/><path class="cls-3" d="M351,269c26-11,55-39,55-64,0-51-72-53-74-101-.87-41.58,43.29-78.66,82.42-87.18a9,9,0,0,1,10,12.86C412.65,53.35,405.17,74,406,94c1.25,30.06,60,31,60,111,0,50-54,93-116,93C350,279,351,269,351,269Z"/><path class="cls-2" d="M262,90c15.25,18.77-7,47-23,55s-60,13-67,0,10-45,36-60S249,74,262,90Z"/><path class="cls-2" d="M228,85c6-9,10-20,16-20s16,19,8,37"/><path class="cls-2" d="M290,146c0,24-10,57-40,61s-40-13-51-11-27,10-31-1,20-24,31-22,21,0,29,0c0-2,1-12,4-17a63.94,63.94,0,0,1,14.54-15.92"/><g id="_Ellipse_" data-name="&lt;Ellipse&gt;"><circle class="cls-4" cx="208" cy="114" r="7"/><circle class="cls-4" cx="208" cy="114" r="7"/></g><text class="cls-5" transform="translate(16.26 396.98)">Trigger Tracker</text></svg>